<?xml version="1.0" standalone="no"?>
<!DOCTYPE svg PUBLIC "-//W3C//DTD SVG 20010904//EN"
 "http://www.w3.org/TR/2001/REC-SVG-20010904/DTD/svg10.dtd">
<svg version="1.0" xmlns="http://www.w3.org/2000/svg"
 width="512.000000pt" height="512.000000pt" viewBox="0 0 512.000000 512.000000"
 preserveAspectRatio="xMidYMid meet">
<metadata>
Created by potrace 1.16, written by Peter Selinger 2001-2019
</metadata>
<g transform="translate(0.000000,512.000000) scale(0.100000,-0.100000)"
fill="#000000" stroke="none">
<path d="M1351 4715 c-761 -263 -1169 -409 -1178 -421 -19 -26 -16 -91 5 -112
10 -10 208 -83 440 -163 l422 -144 0 -435 c0 -378 2 -438 16 -458 15 -22 15
-22 -40 -22 l-56 0 0 41 0 42 -67 -5 c-75 -6 -184 -44 -248 -88 -102 -70 -176
-167 -217 -284 -39 -112 -40 -252 -3 -363 59 -176 184 -299 362 -359 43 -14
80 -28 82 -30 2 -2 -10 -18 -26 -37 -45 -52 -69 -96 -97 -179 -36 -108 -37
-247 -1 -354 27 -79 61 -141 103 -186 14 -15 24 -30 21 -32 -2 -2 -40 -16 -84
-31 -174 -57 -297 -178 -357 -349 -39 -112 -40 -252 -3 -363 59 -174 184 -299
358 -358 l76 -25 1750 0 c1738 0 1751 0 1771 20 18 18 20 33 20 180 0 194 -3
200 -100 200 l-60 0 0 160 0 160 60 0 c90 0 100 14 100 140 l0 100 140 0 c189
0 180 -10 180 200 0 194 -3 200 -100 200 l-60 0 0 160 0 160 60 0 c97 0 100 6
100 200 0 210 9 200 -180 200 l-140 0 0 100 c0 126 -10 140 -100 140 l-60 0 0
160 0 160 60 0 c97 0 100 6 100 200 0 204 3 200 -140 200 l-100 0 0 -40 0 -40
-56 0 c-51 0 -55 1 -43 17 11 13 15 104 19 457 l5 441 310 107 c171 59 313
107 318 108 4 0 7 -103 7 -229 l0 -230 -121 -323 c-116 -312 -120 -325 -117
-390 4 -82 39 -139 107 -175 41 -21 56 -23 211 -23 155 0 170 2 211 23 68 36
103 93 107 175 3 65 -1 78 -117 390 l-121 323 0 258 0 259 30 12 c37 15 50 37
50 84 0 51 -23 68 -141 108 -57 20 -582 200 -1166 402 -738 255 -1073 366
-1100 365 -22 -1 -531 -172 -1202 -404z m3532 -1574 c45 -122 75 -215 71 -225
-11 -29 -40 -36 -154 -36 -113 0 -143 7 -154 35 -6 16 142 435 154 435 3 0 40
-94 83 -209z m-2988 -529 c206 -39 316 -47 665 -47 348 0 462 8 665 47 97 19
155 22 483 25 l372 4 0 -161 0 -160 -1533 0 -1533 0 -44 23 c-48 24 -90 88
-90 137 0 50 42 113 90 138 45 23 46 23 430 19 341 -3 398 -6 495 -25z m2665
-732 l0 -40 -1630 0 -1629 0 -58 -22 c-77 -29 -152 -104 -181 -181 -59 -157 8
-331 156 -404 l57 -28 723 -3 722 -3 0 81 0 80 -693 0 -693 0 -44 23 c-48 24
-90 88 -90 137 0 49 42 113 90 138 l44 22 1533 0 1533 0 0 -160 0 -160 -200 0
-200 0 0 -80 0 -80 280 0 280 0 0 -40 0 -40 -280 0 -280 0 0 -40 0 -40 -40 0
-40 0 0 255 0 256 -25 24 -24 25 -351 0 -351 0 -24 -25 -25 -24 0 -256 0 -255
-37 0 c-37 0 -38 -1 -13 -13 38 -19 54 -60 38 -94 -26 -54 -5 -53 -799 -50
-696 2 -738 3 -757 20 -11 10 -22 27 -25 38 -5 19 8 19 754 19 l759 0 0 80 0
80 -898 0 c-964 0 -953 -1 -1054 51 -138 70 -229 256 -200 409 30 166 136 282
295 325 44 11 315 14 1715 14 l1662 1 0 -40z m-943 -775 l86 -65 -89 0 c-78 0
-86 -2 -64 -13 38 -19 54 -60 38 -94 -19 -41 -53 -53 -148 -53 -95 0 -129 12
-148 53 -16 34 0 75 38 94 14 7 21 13 16 13 -14 0 157 129 172 129 7 1 51 -28
99 -64z m463 -545 l0 -160 -1533 0 -1533 0 -44 23 c-48 24 -90 88 -90 137 0
49 42 113 90 138 l44 22 1533 0 1533 0 0 -160z"/>
<path d="M2880 1280 l0 -80 80 0 80 0 0 80 0 80 -80 0 -80 0 0 -80z"/>
</g>
</svg>
